# xmcd CD database file
#
# Track frame offsets:
#	150
#	17483
#	38331
#	54705
#	77657
#	95001
#	109670
#	127411
#	146921
#	167804
#	183964
#	198940
#
# Disc length: 2810 seconds
#
# Revision: 0
# Processed by: cddbd v1.5.1PL0 Copyright (c) Steve Scherf et al.
# Submitted via: CDex 1.51
#
DISCID=a10af80c
DTITLE=Euroforce - Euroforce
DYEAR=2005
DGENRE=Heavy Metal
TTITLE0=Spirit Raven
TTITLE1=The European Lie
TTITLE2=Trumpets of Old
TTITLE3=Crown Seeker
TTITLE4=Modern Times
TTITLE5=Hellenic Spirit
TTITLE6=By Neptune's Hand
TTITLE7=Spirits By My Side
TTITLE8=Brighter Hellas
TTITLE9=Weeping of A Stone
TTITLE10=Ubiquitous (Instrumental)
TTITLE11=Byzantine Heritage
EXTD=YEAR: 2005
EXTT0=
EXTT1=
EXTT2=
EXTT3=
EXTT4=
EXTT5=
EXTT6=
EXTT7=
EXTT8=
EXTT9=
EXTT10=
EXTT11=
PLAYORDER=
